<svg width="24" height="24" viewBox="0 0 24 24" fill="none" xmlns="http://www.w3.org/2000/svg">
<path d="M20.031 20.79C20.491 21.25 21.201 20.54 20.741 20.09L16.991 16.33C18.3068 14.8747 19.0339 12.9819 19.031 11.02C19.031 6.63 15.461 3.06 11.071 3.06C6.681 3.06 3.111 6.63 3.111 11.02C3.111 15.41 6.681 18.98 11.071 18.98C13.051 18.98 14.881 18.25 16.281 17.04L20.031 20.79ZM4.11 11.02C4.11 7.18 7.24 4.06 11.07 4.06C14.91 4.06 18.03 7.18 18.03 11.02C18.03 14.86 14.91 17.98 11.07 17.98C7.24 17.98 4.11 14.86 4.11 11.02Z" fill="#1E1E1E"/>
</svg>
