<svg width="24" height="24" viewBox="0 0 24 24" fill="none" xmlns="http://www.w3.org/2000/svg">
<path d="M5 10H15C15.55 10 16 10.45 16 11C16 11.55 15.55 12 15 12H5C4.45 12 4 11.55 4 11C4 10.45 4.45 10 5 10ZM5 6H15C15.55 6 16 6.45 16 7C16 7.55 15.55 8 15 8H5C4.45 8 4 7.55 4 7C4 6.45 4.45 6 5 6ZM5 14H11C11.55 14 12 14.45 12 15C12 15.55 11.55 16 11 16H5C4.45 16 4 15.55 4 15C4 14.45 4.45 14 5 14ZM14 14.88V19.11C14 19.5 14.42 19.74 14.76 19.54L18.29 17.42C18.61 17.23 18.61 16.76 18.29 16.56L14.76 14.44C14.6828 14.3959 14.5954 14.3728 14.5065 14.3731C14.4177 14.3733 14.3304 14.3969 14.2535 14.4415C14.1765 14.486 14.1127 14.5499 14.0682 14.6269C14.0237 14.7038 14.0002 14.7911 14 14.88Z" fill="#1E1E1E"/>
</svg>
