<svg width="24" height="24" viewBox="0 0 24 24" fill="none" xmlns="http://www.w3.org/2000/svg">
<path d="M4.616 21C4.15533 21 3.771 20.846 3.463 20.538C3.155 20.23 3.00067 19.8457 3 19.385V10.615C3 10.155 3.15433 9.771 3.463 9.463C3.77167 9.155 4.15567 9.00067 4.615 9H19.385C19.845 9 20.229 9.15433 20.537 9.463C20.845 9.77167 20.9993 10.156 21 10.616V19.385C21 19.845 20.8457 20.2293 20.537 20.538C20.2283 20.8467 19.8443 21.0007 19.385 21H4.616ZM4.616 20H19.385C19.5383 20 19.6793 19.936 19.808 19.808C19.9367 19.68 20.0007 19.5387 20 19.384V10.616C20 10.462 19.936 10.3207 19.808 10.192C19.68 10.0633 19.539 9.99933 19.385 10H4.615C4.46167 10 4.32067 10.064 4.192 10.192C4.06333 10.32 3.99933 10.4613 4 10.616V19.385C4 19.5383 4.064 19.6793 4.192 19.808C4.32 19.9367 4.461 20.0007 4.615 20M10.5 18.077L15.116 15L10.5 11.923V18.077ZM4.5 7.231V6.231H19.5V7.231H4.5ZM7.5 4.461V3.461H16.5V4.461H7.5Z" fill="#1E1E1E"/>
</svg>
