<svg width="24" height="24" viewBox="0 0 24 24" fill="none" xmlns="http://www.w3.org/2000/svg">
<path d="M12.834 3.18597C13.6667 2.71181 14.6531 2.5864 15.5779 2.83715C16.5027 3.08789 17.2908 3.69441 17.7699 4.52423C18.249 5.35405 18.3802 6.33975 18.135 7.26604C17.8898 8.19232 17.288 8.98393 16.461 9.46797L15.721 9.89397C16.5298 9.86598 17.3247 10.1094 17.9792 10.5854C18.6337 11.0614 19.1101 11.7427 19.3326 12.5208C19.5552 13.2989 19.511 14.129 19.2072 14.8791C18.9033 15.6292 18.3573 16.2561 17.656 16.66L10.636 20.713C9.80322 21.1939 8.81348 21.3244 7.88452 21.0756C6.95556 20.8269 6.16347 20.2193 5.6825 19.3865C5.20153 18.5537 5.07108 17.564 5.31985 16.635C5.56861 15.706 6.17622 14.9139 7.009 14.433L7.748 14.005C6.94005 14.0314 6.14643 13.7871 5.49315 13.311C4.83987 12.8349 4.36438 12.1541 4.14218 11.3769C3.91997 10.5996 3.9638 9.77042 4.26669 9.02093C4.56958 8.27143 5.11417 7.6446 5.814 7.23997L12.834 3.18597Z" stroke="#1E1E1E" stroke-width="1.5" stroke-linejoin="round"/>
<path d="M13.992 11.016L11.2 9.27096C10.46 8.80796 9.5 9.34096 9.5 10.213V13.703C9.5 14.576 10.46 15.108 11.2 14.646L13.992 12.9C14.152 12.8003 14.2839 12.6615 14.3754 12.4966C14.4669 12.3318 14.5149 12.1465 14.5149 11.958C14.5149 11.7695 14.4669 11.5841 14.3754 11.4193C14.2839 11.2545 14.152 11.1157 13.992 11.016Z" fill="#1E1E1E"/>
</svg>
