<svg width="14" height="14" viewBox="0 0 14 14" fill="none" xmlns="http://www.w3.org/2000/svg">
<path d="M4.579 6.12599V8.91199M3.186 7.51899H5.972M0.5 6.99999C0.5 8.23139 0.989172 9.41235 1.8599 10.2831C2.73063 11.1538 3.9116 11.643 5.143 11.643H9.786C10.3094 11.6418 10.8266 11.53 11.3037 11.3149C11.7809 11.0999 12.2071 10.7864 12.5547 10.395C12.9022 10.0037 13.163 9.54329 13.3202 9.04406C13.4773 8.54484 13.5271 8.01804 13.4664 7.4982C13.4057 6.97836 13.2358 6.47723 12.9679 6.02764C12.7 5.57806 12.34 5.19018 11.9117 4.88943C11.4834 4.58868 10.9963 4.38186 10.4825 4.28251C9.96861 4.18317 9.43956 4.19356 8.93 4.31299C8.36007 3.50953 7.54938 2.90815 6.61513 2.59582C5.68089 2.28349 4.67152 2.27639 3.73297 2.57555C2.79443 2.8747 1.97535 3.46461 1.39417 4.25997C0.812998 5.05533 0.499846 6.01492 0.5 6.99999Z" stroke="#1E1E1E" stroke-linecap="round" stroke-linejoin="round"/>
<path d="M9.131 7.85297C9.09785 7.85297 9.06605 7.8398 9.04261 7.81636C9.01917 7.79292 9.006 7.76112 9.006 7.72797C9.006 7.69482 9.01917 7.66302 9.04261 7.63958C9.06605 7.61614 9.09785 7.60297 9.131 7.60297M9.131 7.85297C9.16415 7.85297 9.19595 7.8398 9.21939 7.81636C9.24283 7.79292 9.256 7.76112 9.256 7.72797C9.256 7.69482 9.24283 7.66302 9.21939 7.63958C9.19595 7.61614 9.16415 7.60297 9.131 7.60297M11.27 7.85297C11.2368 7.85297 11.2051 7.8398 11.1816 7.81636C11.1582 7.79292 11.145 7.76112 11.145 7.72797C11.145 7.69482 11.1582 7.66302 11.1816 7.63958C11.2051 7.61614 11.2368 7.60297 11.27 7.60297M11.27 7.85297C11.3032 7.85297 11.3349 7.8398 11.3584 7.81636C11.3818 7.79292 11.395 7.76112 11.395 7.72797C11.395 7.69482 11.3818 7.66302 11.3584 7.63958C11.3349 7.61614 11.3032 7.60297 11.27 7.60297M10.225 6.80597C10.1918 6.80597 10.1601 6.7928 10.1366 6.76936C10.1132 6.74592 10.1 6.71412 10.1 6.68097C10.1 6.64782 10.1132 6.61602 10.1366 6.59258C10.1601 6.56914 10.1918 6.55597 10.225 6.55597M10.225 6.80597C10.2582 6.80597 10.2899 6.7928 10.3134 6.76936C10.3368 6.74592 10.35 6.71412 10.35 6.68097C10.35 6.64782 10.3368 6.61602 10.3134 6.59258C10.2899 6.56914 10.2582 6.55597 10.225 6.55597M10.225 8.94397C10.1918 8.94397 10.1601 8.9308 10.1366 8.90736C10.1132 8.88392 10.1 8.85212 10.1 8.81897C10.1 8.78582 10.1132 8.75402 10.1366 8.73058C10.1601 8.70714 10.1918 8.69397 10.225 8.69397M10.225 8.94397C10.2582 8.94397 10.2899 8.9308 10.3134 8.90736C10.3368 8.88392 10.35 8.85212 10.35 8.81897C10.35 8.78582 10.3368 8.75402 10.3134 8.73058C10.2899 8.70714 10.2582 8.69397 10.225 8.69397" stroke="#1E1E1E" stroke-linecap="round" stroke-linejoin="round"/>
</svg>
